<svg id="visual" viewBox="0 0 900 600" width="900" height="600" xmlns="http://www.w3.org/2000/svg" xmlns:xlink="http://www.w3.org/1999/xlink" version="1.1"><rect x="0" y="0" width="900" height="600" fill="#fff"></rect><defs><linearGradient id="grad1_0" x1="33.3%" y1="0%" x2="100%" y2="100%"><stop offset="20%" stop-color="#5b6688" stop-opacity="1"></stop><stop offset="80%" stop-color="#5b6688" stop-opacity="1"></stop></linearGradient></defs><defs><linearGradient id="grad1_1" x1="33.3%" y1="0%" x2="100%" y2="100%"><stop offset="20%" stop-color="#5b6688" stop-opacity="1"></stop><stop offset="80%" stop-color="#9096ae" stop-opacity="1"></stop></linearGradient></defs><defs><linearGradient id="grad1_2" x1="33.3%" y1="0%" x2="100%" y2="100%"><stop offset="20%" stop-color="#c6c9d6" stop-opacity="1"></stop><stop offset="80%" stop-color="#9096ae" stop-opacity="1"></stop></linearGradient></defs><defs><linearGradient id="grad1_3" x1="33.3%" y1="0%" x2="100%" y2="100%"><stop offset="20%" stop-color="#c6c9d6" stop-opacity="1"></stop><stop offset="80%" stop-color="#ffffff" stop-opacity="1"></stop></linearGradient></defs><defs><linearGradient id="grad2_0" x1="0%" y1="0%" x2="66.7%" y2="100%"><stop offset="20%" stop-color="#5b6688" stop-opacity="1"></stop><stop offset="80%" stop-color="#5b6688" stop-opacity="1"></stop></linearGradient></defs><defs><linearGradient id="grad2_1" x1="0%" y1="0%" x2="66.7%" y2="100%"><stop offset="20%" stop-color="#9096ae" stop-opacity="1"></stop><stop offset="80%" stop-color="#5b6688" stop-opacity="1"></stop></linearGradient></defs><defs><linearGradient id="grad2_2" x1="0%" y1="0%" x2="66.7%" y2="100%"><stop offset="20%" stop-color="#9096ae" stop-opacity="1"></stop><stop offset="80%" stop-color="#c6c9d6" stop-opacity="1"></stop></linearGradient></defs><defs><linearGradient id="grad2_3" x1="0%" y1="0%" x2="66.7%" y2="100%"><stop offset="20%" stop-color="#ffffff" stop-opacity="1"></stop><stop offset="80%" stop-color="#c6c9d6" stop-opacity="1"></stop></linearGradient></defs><g transform="translate(900, 0)"><path d="M0 351.5C-38.3 319.2 -76.7 286.9 -109.1 263.3C-141.5 239.7 -167.9 224.7 -207.2 207.2C-246.5 189.6 -298.6 169.5 -324.8 134.5C-351 99.6 -351.3 49.8 -351.5 0L0 0Z" fill="#e2e4ea"></path><path d="M0 263.7C-28.8 239.4 -57.5 215.2 -81.8 197.5C-106.1 179.8 -125.9 168.5 -155.4 155.4C-184.8 142.2 -223.9 127.1 -243.6 100.9C-263.2 74.7 -263.4 37.3 -263.7 0L0 0Z" fill="#abafc2"></path><path d="M0 175.8C-19.2 159.6 -38.3 143.5 -54.5 131.7C-70.7 119.8 -84 112.4 -103.6 103.6C-123.2 94.8 -149.3 84.7 -162.4 67.3C-175.5 49.8 -175.6 24.9 -175.8 0L0 0Z" fill="#757e9b"></path><path d="M0 87.9C-9.6 79.8 -19.2 71.7 -27.3 65.8C-35.4 59.9 -42 56.2 -51.8 51.8C-61.6 47.4 -74.6 42.4 -81.2 33.6C-87.7 24.9 -87.8 12.4 -87.9 0L0 0Z" fill="#5b6688"></path></g><g transform="translate(0, 600)"><path d="M0 -351.5C39.8 -330.8 79.5 -310.1 122.5 -295.6C165.4 -281.2 211.6 -273.1 247.5 -247.5C283.4 -221.9 309.1 -178.7 324.8 -134.5C340.4 -90.4 346 -45.2 351.5 0L0 0Z" fill="#e2e4ea"></path><path d="M0 -263.7C29.8 -248.1 59.6 -232.5 91.8 -221.7C124.1 -210.9 158.7 -204.8 185.6 -185.6C212.6 -166.4 231.9 -134 243.6 -100.9C255.3 -67.8 259.5 -33.9 263.7 0L0 0Z" fill="#abafc2"></path><path d="M0 -175.8C19.9 -165.4 39.8 -155 61.2 -147.8C82.7 -140.6 105.8 -136.6 123.7 -123.7C141.7 -110.9 154.6 -89.3 162.4 -67.3C170.2 -45.2 173 -22.6 175.8 0L0 0Z" fill="#757e9b"></path><path d="M0 -87.9C9.9 -82.7 19.9 -77.5 30.6 -73.9C41.4 -70.3 52.9 -68.3 61.9 -61.9C70.9 -55.5 77.3 -44.7 81.2 -33.6C85.1 -22.6 86.5 -11.3 87.9 0L0 0Z" fill="#5b6688"></path></g></svg>